<svg version="1.1" id="Layer_1" xmlns="http://www.w3.org/2000/svg" xmlns:xlink="http://www.w3.org/1999/xlink" x="0px" y="0px" width="16px" height="16px" viewBox="0 0 16 16" enable-background="new 0 0 16 16" xml:space="preserve">
  <g id="main">
    <g id="icon">
      <path d="M8.302,4.507L8.309,4.508L8.799,4.685L9.24,4.933L9.629,5.245L9.96,5.611L12.85,3.259L12.13,2.48L11.28,1.818L10.33,1.289L9.272,0.9123L9.258,0.9088zM7.039,5.338L6.623,5.467L6.246,5.672L5.918,5.943L5.647,6.271L5.442,6.648L5.313,7.064L5.268,7.512L5.313,7.959L5.442,8.375L5.647,8.752L5.918,9.08L6.139,9.263L6.1,9.19L6.025,8.944L6,8.684L6.025,8.424L6.1,8.178L6.207,7.978L6.147,7.787L6.12,7.512L6.147,7.236L6.227,6.979L6.353,6.747L6.52,6.545L6.722,6.378L6.954,6.252L7.211,6.173L7.487,6.145L7.762,6.173L7.943,6.229L7.951,6.222L8.177,6.101L8.423,6.026L8.683,6.001L8.943,6.026L9.185,6.099L9.055,5.943L8.727,5.672L8.35,5.467L7.934,5.338L7.486,5.293zM7.144,6.646L6.85,6.845L6.651,7.139L6.578,7.5L6.588,7.549L7.554,6.584L7.505,6.574zM2.208,11.78L2.91,12.53L3.724,13.17L4.642,13.68L5.654,14.05L6.668,10.47L6.208,10.3L5.792,10.07L5.422,9.78L5.103,9.441zz" fill="#FFFFFF"/>
      <path d="M6.733,0.03867L5.988,0.1523L5.27,0.3371L4.581,0.5895L3.925,0.9053L3.307,1.281L2.729,1.713L2.197,2.197L1.713,2.729L1.281,3.307L0.9053,3.925L0.5895,4.581L0.3371,5.27L0.1523,5.988L0.03867,6.733L0,7.5L0.03867,8.267L0.1523,9.012L0.3371,9.73L0.5895,10.42L0.9053,11.08L1.281,11.69L1.713,12.27L2.197,12.8L2.729,13.29L3.307,13.72L3.925,14.09L4.581,14.41L5.27,14.66L5.988,14.85L6.163,14.87L6.097,14.75L6.001,14.25L6.097,13.75L6.218,13.53L6.387,13.32L8.237,11.47L6.387,9.618L6.221,9.416L6.139,9.263L5.918,9.08L5.647,8.752L5.442,8.375L5.313,7.959L5.268,7.512L5.313,7.064L5.442,6.648L5.647,6.271L5.918,5.943L6.246,5.672L6.623,5.467L7.039,5.338L7.486,5.293L7.934,5.338L8.35,5.467L8.727,5.672L9.055,5.943L9.185,6.099L9.189,6.101L9.416,6.222L9.617,6.388L11.47,8.238L13.32,6.388L13.52,6.222L13.75,6.101L13.99,6.026L14.25,6.001L14.51,6.026L14.76,6.101L14.87,6.164L14.85,5.988L14.66,5.27L14.41,4.581L14.09,3.925L13.72,3.307L13.29,2.729L12.8,2.197L12.27,1.713L11.69,1.281L11.08,0.9053L10.42,0.5895L9.73,0.3371L9.012,0.1523L8.267,0.03867L7.5,0zM9.272,0.9123L10.33,1.289L11.28,1.818L12.13,2.48L12.85,3.259L9.96,5.611L9.629,5.245L9.24,4.933L8.799,4.685L8.309,4.508L8.302,4.507L9.258,0.9088zM7.211,6.173L6.954,6.252L6.722,6.378L6.52,6.545L6.353,6.747L6.227,6.979L6.147,7.236L6.12,7.512L6.147,7.787L6.207,7.978L6.221,7.951L6.387,7.75L6.588,7.549L6.578,7.5L6.651,7.139L6.85,6.845L7.144,6.646L7.505,6.574L7.554,6.584L7.749,6.388L7.943,6.229L7.762,6.173L7.487,6.145zM5.422,9.78L5.792,10.07L6.208,10.3L6.668,10.47L5.654,14.05L4.642,13.68L3.724,13.17L2.91,12.53L2.208,11.78L5.103,9.441zz" fill="#3E79B4"/>
    </g>
    <g id="overlay">
      <path d="M15.906,14.544l-1.362,1.362c-0.125,0.125,-0.329,0.125,-0.454,0l-2.622,-2.622l-2.557,2.557c-0.125,0.125,-0.329,0.125,-0.454,0l-1.362,-1.362c-0.125,-0.125,-0.125,-0.329,0,-0.454l2.557,-2.557L7.094,8.911c-0.125,-0.125,-0.125,-0.329,0,-0.454l1.362,-1.362c0.125,-0.125,0.329,-0.125,0.454,0l2.557,2.557l2.557,-2.557c0.125,-0.125,0.329,-0.125,0.454,0l1.362,1.362c0.125,0.125,0.125,0.329,0,0.454l-2.557,2.557l2.622,2.622C16.031,14.215,16.031,14.418,15.906,14.544z" fill-rule="evenodd" fill="#CD4C32"/>
    </g>
  </g>
</svg>