<?xml version="1.0" encoding="UTF-8"?>
<!DOCTYPE svg PUBLIC "-//W3C//DTD SVG 1.1//EN" "http://www.w3.org/Graphics/SVG/1.1/DTD/svg11.dtd">
<svg version="1.1" id="Layer_1" xmlns="http://www.w3.org/2000/svg" xmlns:xlink="http://www.w3.org/1999/xlink" x="0px" y="0px" width="16px" height="16px" viewBox="0 0 16 16" enable-background="new 0 0 16 16" xml:space="preserve">
  <g id="main">
    <g id="icon">
      <path d="M4.621,0.08691L4.039,0.3246L3.784,0.4984L3.562,0.7078L3.384,0.952L3.256,1.23L3.163,1.614L3.163,1.982L3.279,2.315L3.537,2.595L3.755,2.749L3.948,2.947L3.993,3.068L3.98,3.204L3.894,3.357L3.717,3.53L3.466,3.604L3.009,3.634L1.772,3.604L0.0748,3.481L0.01484,4.867L-0,5.73L0,6.096L0.03281,6.86L0.07793,7.022L0.1631,7.154L0.4201,7.312L0.5754,7.326L0.7369,7.289L0.8967,7.195L1.046,7.039L1.315,6.82L1.663,6.736L2.054,6.779L2.457,6.938L2.835,7.204L3.157,7.569L3.387,8.023L3.491,8.556L3.438,9.102L3.242,9.544L2.943,9.883L2.583,10.12L2.201,10.25L1.839,10.27L1.538,10.2L1.337,10.02L1.183,9.82L0.9885,9.669L0.7709,9.57L0.5492,9.528L0.3414,9.548L0.1658,9.635L0.04082,9.795L-0,9.967L0,10.43L0.03164,11.23L0.1986,12.76L0.4613,14.62L1.673,14.85L2.712,14.98L3.203,15L3.62,14.97L3.779,14.91L3.91,14.8L4.071,14.47L4.067,14.08L3.992,13.9L3.863,13.74L3.739,13.55L3.671,13.24L3.679,12.87L3.778,12.47L3.989,12.1L4.329,11.79L4.816,11.59L5.47,11.54L6.111,11.64L6.566,11.86L6.86,12.15L7.017,12.48L7.062,12.82L7.021,13.12L6.918,13.37L6.777,13.53L6.65,13.65L6.564,13.82L6.524,14.03L6.535,14.25L6.602,14.47L6.73,14.68L6.924,14.84L7.19,14.95L7.673,15.01L8.261,14.99L9.541,14.78L10.61,14.51L11,14.4L11,13.6L11,13.58L10.9,13.68L10.54,13.92L10.12,14L10.12,14L9.685,13.91L9.33,13.67L9.09,13.32L9.001,12.89L9,10.95L9.088,10.48L9.343,10.08L9.359,10.07L9.376,10.05L11.48,8.003L11.47,8.003L11.28,7.967L11.11,7.882L10.98,7.756L10.91,7.596L10.85,7.114L10.84,6.514L10.89,5.183L11.05,3.578L6.971,3.772L6.738,3.757L6.542,3.692L6.388,3.586L6.286,3.445L6.242,3.274L6.263,3.082L6.358,2.874L6.534,2.658L6.817,2.368L6.997,2.102L7.079,1.763L7.068,1.255L6.996,0.9271L6.855,0.6559L6.658,0.4373L6.415,0.2676L5.844,0.05957L5.24,0.001367zM13.03,7.008L13.45,7.09L13.83,7.347L14.92,8.41L14.89,8.259L14.76,7.907L14.59,7.619L14.39,7.39L14.17,7.216L13.68,7.016L13.17,6.981zz" fill-rule="evenodd" fill="#cfcfcf"/>
    </g>
    <g id="overlay">
      <path d="M10.0699,10.7712c-0.0451,0.0478,-0.0701,0.111,-0.0699,0.1767l0.0006,1.9354c0.0003,0.1039,0.1259,0.1557,0.1994,0.0823l1.8,-1.7219v4.4913c0,0.1416,0.0833,0.265,0.2249,0.265h0.5601h0.502h0.4391c0.1416,0,0.2563,-0.1148,0.2563,-0.2563v-4.4913l1.8185,1.7304c0.0737,0.0732,0.1991,0.0209,0.1991,-0.0829v-1.9222c0,-0.0662,-0.0256,-0.1299,-0.0715,-0.1776c0,0,-2.0193,-1.9735,-2.7965,-2.7414c-0.0795,-0.0786,-0.204,-0.078,-0.2828,0.0013C12.0873,8.8265,10.0699,10.7712,10.0699,10.7712z" fill-rule="evenodd" fill="#3E79B4"/>
    </g>
  </g>
</svg>