<svg version="1.1" id="Layer_1" xmlns="http://www.w3.org/2000/svg" xmlns:xlink="http://www.w3.org/1999/xlink" x="0px" y="0px" width="32px" height="32px" viewBox="0 0 32 32" enable-background="new 0 0 32 32" xml:space="preserve">
  <g id="icon">
    <path d="M5,1.5v15.358l0.955,0.672c0.073,-0.03,0.146,-0.059,0.22,-0.086l0.196,-1.129c0.133,-0.761,0.79,-1.314,1.562,-1.314H9.12c0.773,0,1.43,0.553,1.562,1.314l0.208,1.193c0.098,0.039,0.194,0.081,0.29,0.125l0.931,-0.655c0.269,-0.189,0.584,-0.289,0.912,-0.289c0.424,0,0.822,0.165,1.122,0.464l0.839,0.839c0.546,0.547,0.62,1.402,0.176,2.034l-0.696,0.99c0.029,0.069,0.058,0.138,0.084,0.207l1.138,0.198c0.761,0.133,1.314,0.79,1.314,1.563v1.186c0,0.773,-0.553,1.43,-1.315,1.563l-1.147,0.199c-0.044,0.113,-0.091,0.225,-0.142,0.336l0.517,0.734H30V1.5H5z" fill-rule="evenodd" fill="#FFFFFF"/>
    <path d="M30.2,1H4.8c-0.442,0,-0.8,0.358,-0.8,0.8v14.755c0.021,-0.001,0.042,-0.003,0.063,-0.003c0.328,0,0.644,0.1,0.912,0.289l0.024,0.017V2h25v25H14.913l0.11,0.156c0.181,0.257,0.274,0.55,0.287,0.844H30.2c0.442,0,0.8,-0.358,0.8,-0.8V1.8C31,1.358,30.642,1,30.2,1z" fill-rule="evenodd" fill="#6D6E71"/>
    <path d="M8.171,13.907c-0.189,-0.189,-0.189,-0.496,0,-0.686l0.424,-0.424c0.189,-0.189,0.496,-0.189,0.686,0l1.195,1.195l2.873,-2.873c0.189,-0.189,0.496,-0.189,0.686,0l0.424,0.424c0.189,0.189,0.189,0.496,0,0.686l-3.64,3.64c-0.065,0.065,-0.145,0.106,-0.228,0.127c-0.218,-0.546,-0.723,-0.931,-1.318,-0.987L8.171,13.907zM10.133,8.904c0.189,0.189,0.496,0.189,0.686,0l3.64,-3.64c0.189,-0.189,0.189,-0.496,0,-0.686l-0.424,-0.424c-0.189,-0.189,-0.496,-0.189,-0.686,0l-2.873,2.873L9.281,5.833c-0.189,-0.189,-0.496,-0.189,-0.686,0l-0.424,0.424c-0.189,0.189,-0.189,0.496,0,0.686L10.133,8.904z" fill="#3E79B4"/>
    <path d="M20,14.5c0,0.276,-0.224,0.5,-0.5,0.5h-3c-0.276,0,-0.5,-0.224,-0.5,-0.5s0.224,-0.5,0.5,-0.5h3C19.776,14,20,14.224,20,14.5zM19.5,7h-3c-0.276,0,-0.5,0.224,-0.5,0.5s0.224,0.5,0.5,0.5h3c0.276,0,0.5,-0.224,0.5,-0.5S19.776,7,19.5,7zM19.5,21h-3c-0.276,0,-0.5,0.224,-0.5,0.5c0,0.003,0.001,0.006,0.001,0.01c0.263,0.104,0.488,0.275,0.658,0.49H19.5c0.276,0,0.5,-0.224,0.5,-0.5S19.776,21,19.5,21zM25.5,8h2c0.276,0,0.5,-0.224,0.5,-0.5s-0.224,-0.5,-0.5,-0.5h-2c-0.276,0,-0.5,0.224,-0.5,0.5S25.224,8,25.5,8zM27.5,21h-2c-0.276,0,-0.5,0.224,-0.5,0.5s0.224,0.5,0.5,0.5h2c0.276,0,0.5,-0.224,0.5,-0.5S27.776,21,27.5,21zM23.5,21h-2c-0.276,0,-0.5,0.224,-0.5,0.5s0.224,0.5,0.5,0.5h2c0.276,0,0.5,-0.224,0.5,-0.5S23.776,21,23.5,21zM23.5,7h-2c-0.276,0,-0.5,0.224,-0.5,0.5s0.224,0.5,0.5,0.5h2c0.276,0,0.5,-0.224,0.5,-0.5S23.776,7,23.5,7zM27.5,14h-2c-0.276,0,-0.5,0.224,-0.5,0.5s0.224,0.5,0.5,0.5h2c0.276,0,0.5,-0.224,0.5,-0.5S27.776,14,27.5,14zM23.5,14h-2c-0.276,0,-0.5,0.224,-0.5,0.5s0.224,0.5,0.5,0.5h2c0.276,0,0.5,-0.224,0.5,-0.5S23.776,14,23.5,14z" fill="#B4B4B5"/>
    <path d="M16,24.168v-1.186c0,-0.285,-0.205,-0.528,-0.486,-0.577l-1.727,-0.301c-0.111,-0.404,-0.271,-0.802,-0.48,-1.185l1.034,-1.47c0.164,-0.233,0.137,-0.55,-0.065,-0.751l-0.839,-0.839c-0.201,-0.201,-0.519,-0.229,-0.751,-0.065l-1.428,1.005c-0.395,-0.232,-0.816,-0.414,-1.253,-0.541l-0.308,-1.772c-0.049,-0.281,-0.292,-0.486,-0.577,-0.486H7.933c-0.285,0,-0.528,0.205,-0.577,0.486l-0.3,1.726c-0.41,0.107,-0.813,0.263,-1.201,0.47L4.4,17.659c-0.233,-0.164,-0.55,-0.137,-0.751,0.065l-0.839,0.839c-0.201,0.201,-0.229,0.519,-0.065,0.751l0.974,1.384c-0.248,0.411,-0.416,0.851,-0.55,1.308l-1.684,0.296c-0.28,0.049,-0.484,0.293,-0.484,0.577v1.188c0,0.284,0.204,0.528,0.484,0.577l1.63,0.287c0.111,0.435,0.265,0.862,0.489,1.273L2.617,27.6c-0.165,0.233,-0.138,0.55,0.064,0.752l0.836,0.837c0.201,0.202,0.519,0.229,0.752,0.065l1.34,-0.944c0.426,0.255,0.881,0.425,1.356,0.558l0.289,1.647c0.049,0.28,0.293,0.485,0.577,0.485h1.188c0.284,0,0.528,-0.204,0.577,-0.484l0.287,-1.631c0.43,-0.115,0.851,-0.273,1.257,-0.499l1.411,0.997c0.233,0.165,0.55,0.138,0.752,-0.064l0.837,-0.836c0.202,-0.201,0.229,-0.519,0.065,-0.752l-0.975,-1.384c0.238,-0.41,0.422,-0.847,0.549,-1.3l1.735,-0.301C15.795,24.697,16,24.453,16,24.168zM9.724,25.771c-1.218,0.703,-2.776,0.286,-3.479,-0.932c-0.703,-1.218,-0.286,-2.776,0.932,-3.479c1.218,-0.703,2.776,-0.286,3.479,0.932C11.359,23.51,10.942,25.067,9.724,25.771z" fill-rule="evenodd" fill="#E78155"/>
  </g>
</svg>
