<svg version="1.1" id="Layer_1" xmlns="http://www.w3.org/2000/svg" xmlns:xlink="http://www.w3.org/1999/xlink" x="0px" y="0px" width="16px" height="16px" viewBox="0 0 16 16" enable-background="new 0 0 16 16" xml:space="preserve">
  <g id="icon">
    <path d="M15.2,0H2.8c-0.442,0,-0.8,0.358,-0.8,0.8v1.2v4.942c0.221,0.026,0.431,0.106,0.616,0.236l0.181,0.127l0.032,-0.184c0.029,-0.168,0.089,-0.323,0.172,-0.462V2V1h12v1v10v1H9.436c-0.161,0.115,-0.349,0.197,-0.556,0.233l-0.268,0.047l0.13,0.184c0.116,0.165,0.191,0.349,0.225,0.537H15.2c0.442,0,0.8,-0.358,0.8,-0.8v-1.2V2V0.8C16,0.358,15.642,0,15.2,0z" fill-rule="evenodd" fill="#6D6E71"/>
    <path d="M3,1v5.658C3.238,6.259,3.672,6,4.16,6h0.712c0.659,0,1.219,0.471,1.332,1.12l0.047,0.27l0.186,-0.131c0.229,-0.161,0.498,-0.246,0.778,-0.246c0.361,0,0.7,0.141,0.956,0.396l0.503,0.503c0.466,0.466,0.529,1.195,0.15,1.733l-0.127,0.181l0.184,0.032c0.649,0.113,1.12,0.673,1.12,1.332v0.712c0,0.449,-0.219,0.852,-0.564,1.099H15V1H3z" fill-rule="evenodd" fill="#FFFFFF"/>
    <path d="M9.053,9.073c0.042,-0.274,-0.001,-0.557,-0.126,-0.808l0.195,0.195c0.15,0.15,0.15,0.393,0,0.543L9.053,9.073zM5.696,5.888c0.15,0.15,0.393,0.15,0.543,0l2.883,-2.883c0.15,-0.15,0.15,-0.393,0,-0.543l-0.336,-0.336c-0.15,-0.15,-0.393,-0.15,-0.543,0L5.967,4.401l-0.946,-0.946c-0.15,-0.15,-0.393,-0.15,-0.543,0l-0.336,0.336c-0.15,0.15,-0.15,0.393,0,0.543L5.696,5.888z" fill="#3E79B4"/>
    <path d="M9.5,4.5c0,-0.276,0.224,-0.5,0.5,-0.5h3.5c0.276,0,0.5,0.224,0.5,0.5s-0.224,0.5,-0.5,0.5h-3.5C9.724,5,9.5,4.776,9.5,4.5zM13.5,10h-3.5c-0.171,0,-0.322,0.086,-0.412,0.218c0.212,0.205,0.355,0.478,0.398,0.781c0.005,0,0.01,0.001,0.015,0.001h3.5c0.276,0,0.5,-0.224,0.5,-0.5S13.776,10,13.5,10z" fill="#B4B4B5"/>
    <path d="M9,11.901v-0.712c0,-0.171,-0.123,-0.317,-0.291,-0.346l-1.036,-0.18c-0.067,-0.243,-0.163,-0.481,-0.288,-0.711l0.621,-0.882c0.098,-0.14,0.082,-0.33,-0.039,-0.451l-0.503,-0.503c-0.121,-0.121,-0.311,-0.137,-0.451,-0.039l-0.857,0.603c-0.237,-0.139,-0.49,-0.248,-0.752,-0.325l-0.185,-1.063C5.189,7.123,5.043,7,4.872,7H4.16c-0.171,0,-0.317,0.123,-0.346,0.291l-0.18,1.036c-0.246,0.064,-0.488,0.158,-0.721,0.282l-0.872,-0.614c-0.14,-0.098,-0.33,-0.082,-0.451,0.039l-0.503,0.503c-0.121,0.121,-0.137,0.311,-0.039,0.451l0.584,0.83c-0.149,0.247,-0.25,0.511,-0.33,0.785l-1.01,0.178c-0.168,0.03,-0.291,0.176,-0.291,0.346v0.713c0,0.171,0.123,0.317,0.291,0.346l0.978,0.172c0.067,0.261,0.159,0.517,0.293,0.764L0.97,13.96c-0.099,0.14,-0.083,0.33,0.038,0.451l0.501,0.502c0.121,0.121,0.311,0.138,0.451,0.039l0.804,-0.566c0.255,0.153,0.529,0.255,0.813,0.335l0.174,0.988c0.03,0.168,0.176,0.291,0.346,0.291h0.713c0.171,0,0.317,-0.123,0.346,-0.291l0.172,-0.979c0.258,-0.069,0.511,-0.164,0.754,-0.299l0.847,0.598c0.14,0.099,0.33,0.083,0.451,-0.038l0.502,-0.501c0.121,-0.121,0.138,-0.311,0.039,-0.451l-0.585,-0.831c0.143,-0.246,0.253,-0.508,0.329,-0.78l1.041,-0.181C8.877,12.218,9,12.072,9,11.901zM5.234,12.862c-0.731,0.422,-1.666,0.172,-2.087,-0.559c-0.422,-0.731,-0.172,-1.666,0.559,-2.087c0.731,-0.422,1.666,-0.172,2.087,0.559S5.965,12.44,5.234,12.862z" fill-rule="evenodd" fill="#E78155"/>
  </g>
</svg>
