<svg version="1.1" id="Layer_1" xmlns="http://www.w3.org/2000/svg" xmlns:xlink="http://www.w3.org/1999/xlink" x="0px" y="0px" width="16px" height="16px" viewBox="0 0 16 16" enable-background="new 0 0 16 16" xml:space="preserve">
  <g id="main">
    <g id="icon">
      <path d="M4.621,0.08691L4.039,0.3246L3.784,0.4984L3.562,0.7078L3.384,0.952L3.256,1.23L3.163,1.614L3.163,1.982L3.279,2.315L3.537,2.595L3.755,2.749L3.948,2.947L3.993,3.068L3.98,3.204L3.894,3.357L3.717,3.53L3.466,3.604L3.009,3.634L1.772,3.604L0.0748,3.481L0.01484,4.867L-0,5.73L0,6.096L0.03281,6.86L0.07793,7.022L0.1631,7.154L0.4201,7.312L0.5754,7.326L0.7369,7.289L0.8967,7.195L1.046,7.039L1.315,6.82L1.663,6.736L2.054,6.779L2.457,6.938L2.835,7.204L3.157,7.569L3.387,8.023L3.491,8.556L3.438,9.102L3.242,9.544L2.943,9.883L2.583,10.12L2.201,10.25L1.839,10.27L1.538,10.2L1.337,10.02L1.183,9.82L0.9885,9.669L0.7709,9.57L0.5492,9.528L0.3414,9.548L0.1658,9.635L0.04082,9.795L-0,9.967L0,10.43L0.03164,11.23L0.1986,12.76L0.4613,14.62L1.673,14.85L2.713,14.98L3.203,15L3.62,14.97L3.779,14.91L3.91,14.8L4.071,14.47L4.067,14.08L3.992,13.9L3.863,13.74L3.739,13.55L3.671,13.24L3.679,12.87L3.778,12.47L3.989,12.1L4.329,11.79L4.816,11.59L5.47,11.54L6.111,11.64L6.443,11.8L6.576,11.73L6.944,11.41L7.276,11.04L7.603,10.59L7.594,10.59L7.877,10.19L7.866,10.18L8.355,9.515L9.046,8.543L9.187,8.643L9.521,8.506L9.882,8.46L10.25,8.504L10.56,8.616L11.05,8.905L11.17,8.991L11.42,8.297L11.53,7.997L11.47,8.003L11.28,7.967L11.11,7.882L10.98,7.756L10.91,7.596L10.85,7.114L10.84,6.514L10.89,5.183L11.05,3.578L6.971,3.772L6.738,3.757L6.542,3.692L6.388,3.586L6.286,3.445L6.242,3.274L6.263,3.082L6.358,2.874L6.534,2.658L6.817,2.368L6.997,2.102L7.079,1.763L7.068,1.255L6.996,0.9271L6.855,0.6559L6.658,0.4373L6.415,0.2676L5.844,0.05957L5.24,0.001367zz" fill-rule="evenodd" fill="#cfcfcf"/>
    </g>
    <g id="overlay">
      <path d="M8.988,10.3502c-0.7561,1.0627,-1.266,2.0185,-2.4411,2.5344c-1.1751,0.5159,4.4176,3.8213,5.6499,2.9782c0.5449,-0.3728,1.0801,-1.0784,1.7187,-1.976c0.0049,-0.0069,0.0095,-0.014,0.0138,-0.0213L8.988,10.3502z" fill="#EAB765"/>
      <path d="M14.4593,13.0872c0.1815,-0.3818,-0.1468,-0.62,-0.4274,-0.8275c-0.3394,-0.2511,-1.0442,-0.6716,-0.6591,-1.1544c0.5019,-0.6292,1.2432,-1.0407,1.8266,-1.583c0.596,-0.554,1.0902,-1.397,0.6078,-2.1844c-0.1532,-0.2501,-0.327,-0.4341,-0.5372,-0.5756c-0.1953,-0.1469,-0.4327,-0.256,-0.7192,-0.3187c-0.9021,-0.1975,-1.5357,0.5454,-1.8637,1.2901c-0.321,0.729,-0.4659,1.5634,-0.8957,2.2438c-0.3298,0.5221,-0.9578,-0.0083,-1.3063,-0.2466c-0.2881,-0.197,-0.6233,-0.4253,-0.9245,-0.1287c-0.0749,0.0738,-0.1676,0.1883,-0.2875,0.3516l2.474,1.7601l2.4741,1.7602C14.3364,13.3072,14.4141,13.1821,14.4593,13.0872zM14.1655,8.315c-0.2735,-0.1946,-0.3375,-0.5741,-0.1429,-0.8476c0.1946,-0.2735,0.5741,-0.3375,0.8476,-0.1429c0.2735,0.1946,0.3375,0.5741,0.1429,0.8476C14.8185,8.4456,14.439,8.5095,14.1655,8.315z" fill="#6D6E71"/>
      <rect x="8.5721" y="11.6522" width="6.0779" height="0.5065" fill="#E6E7E8" transform="matrix(0.8148 0.5797 -0.5797 0.8148 9.05164 -4.52638)"/>
    </g>
  </g>
</svg>