<svg version="1.1" id="Layer_1" xmlns="http://www.w3.org/2000/svg" xmlns:xlink="http://www.w3.org/1999/xlink" x="0px" y="0px" width="32px" height="32px" viewBox="0 0 32 32" enable-background="new 0 0 32 32" xml:space="preserve">
  <g id="main">
    <g id="icon">
      <path d="M9.94,0.04824L9.325,0.1727L8.729,0.373L8.167,0.6479L7.658,0.9953L7.217,1.414L6.861,1.902L6.607,2.457L6.422,3.225L6.395,3.599L6.421,3.96L6.504,4.304L6.652,4.626L6.871,4.922L7.167,5.187L7.6,5.494L7.815,5.68L7.984,5.891L8.074,6.131L8.05,6.403L7.878,6.71L7.524,7.056L7.335,7.141L7.024,7.203L6.114,7.263L3.651,7.204L1.311,7.047L0.2699,6.957L0.1504,9.729L0.1119,11.98L0.1303,12.96L0.1861,13.71L0.276,14.04L0.4457,14.3L0.6785,14.5L0.9578,14.62L1.267,14.64L1.589,14.57L1.907,14.38L2.205,14.07L2.449,13.82L2.741,13.63L3.071,13.52L3.433,13.46L3.816,13.48L4.213,13.55L4.615,13.68L5.014,13.87L5.402,14.11L5.769,14.4L6.107,14.74L6.409,15.13L6.665,15.56L6.867,16.04L7.006,16.55L7.075,17.1L7.063,17.67L6.969,18.19L6.805,18.66L6.579,19.08L6.302,19.44L5.984,19.75L5.635,20.02L5.266,20.22L4.886,20.38L4.506,20.48L4.135,20.54L3.785,20.54L3.464,20.49L3.184,20.38L2.954,20.23L2.785,20.02L2.478,19.63L2.09,19.33L1.657,19.13L1.215,19.05L0.801,19.09L0.4514,19.26L0.2021,19.58L0.09023,20.05L0.09375,21.11L0.1838,22.46L0.5164,25.5L1.04,29.22L1.748,29.37L3.453,29.69L5.524,29.95L6.5,29.99L7.332,29.93L7.648,29.81L7.909,29.58L8.106,29.28L8.23,28.92L8.272,28.53L8.223,28.15L8.074,27.78L7.815,27.47L7.68,27.31L7.569,27.08L7.434,26.47L7.448,25.72L7.522,25.33L7.647,24.93L7.827,24.55L8.066,24.18L8.371,23.85L8.744,23.56L9.19,23.33L9.715,23.16L10.32,23.07L11.02,23.06L11.7,23.14L12.29,23.28L12.79,23.47L13.2,23.71L13.53,23.98L13.78,24.28L13.97,24.61L14.1,24.94L14.17,25.28L14.19,25.62L14.11,26.24L13.9,26.73L13.62,27.04L13.37,27.28L13.2,27.63L13.12,28.04L13.14,28.49L13.27,28.93L13.53,29.33L13.91,29.67L14.44,29.89L14.89,29.98L15.41,30.01L16.58,29.96L17.43,29.84L17.04,29.57L16.5,29.1L16.04,28.61L15.71,28.12L15.52,27.64L15.5,27.15L15.64,26.71L15.92,26.34L16.34,26.08L16.81,25.84L17.23,25.56L17.97,24.89L18.62,24.09L19.27,23.17L19.26,23.16L19.72,22.52L19.71,22.52L20.13,21.94L20.89,20.87L20.97,20.93L21.23,20.74L21.5,20.61L21.79,20.53L22.09,20.5L22.55,20.56L22.65,20.59L22.84,20.53L23.3,20.54L23.75,20.65L24.15,20.83L24.47,21.02L24.62,21.16L24.8,20.77L25.13,19.82L25.38,19.08L25.67,18.33L25.98,17.72L26.33,17.18L26.72,16.71L27.14,16.32L27.6,16.02L28.08,15.79L28.58,15.66L29.11,15.61L29.43,15.65L29.19,15.23L28.79,14.77L28.34,14.43L27.86,14.18L27.36,14.02L26.85,13.95L26.36,13.95L25.88,14.02L25.44,14.14L25.06,14.31L24.74,14.51L24.5,14.74L24.36,14.99L24.1,15.47L23.77,15.78L23.38,15.96L22.98,16L22.59,15.92L22.25,15.75L21.99,15.5L21.85,15.18L21.73,14.22L21.71,13.02L21.82,10.36L22.02,8.104L22.13,7.152L14.01,7.539L13.54,7.508L13.15,7.38L12.85,7.168L12.64,6.884L12.55,6.544L12.6,6.16L12.79,5.745L13.14,5.313L13.7,4.733L13.9,4.472L14.06,4.2L14.16,3.891L14.22,3.522L14.2,2.508L14.06,1.852L13.78,1.31L13.38,0.873L12.9,0.5338L12.35,0.2846L11.76,0.1178L11.16,0.02617L10.56,0.001563zz" fill-rule="evenodd" fill="#cfcfcf"/>
    </g>
    <g id="overlay">
      <path d="M20.6576,22.9259c-1.2121,1.7037,-2.0295,3.2359,-3.9134,4.063c-1.8839,0.8271,7.082,6.1261,9.0575,4.7745c0.8736,-0.5977,1.7315,-1.7287,2.7553,-3.1678c0.0079,-0.0111,0.0152,-0.0225,0.0221,-0.0341L20.6576,22.9259z" fill="#EAB765"/>
      <path d="M29.4288,27.3137c0.2909,-0.6121,-0.2353,-0.9939,-0.6851,-1.3267c-0.5441,-0.4025,-1.674,-1.0767,-1.0566,-1.8507c0.8047,-1.0087,1.9931,-1.6684,2.9284,-2.5378c0.9555,-0.8882,1.7478,-2.2395,0.9744,-3.5019c-0.2456,-0.4009,-0.5242,-0.696,-0.8611,-0.9228c-0.313,-0.2356,-0.6937,-0.4104,-1.1529,-0.5109c-1.4461,-0.3167,-2.462,0.8743,-2.9878,2.0682c-0.5146,1.1686,-0.747,2.5063,-1.436,3.5972c-0.5287,0.837,-1.5355,-0.0133,-2.0941,-0.3954c-0.4619,-0.3159,-0.9993,-0.6818,-1.4821,-0.2063c-0.1201,0.1183,-0.2686,0.3018,-0.4609,0.5637l3.9662,2.8217l3.9663,2.8218C29.2318,27.6665,29.3564,27.466,29.4288,27.3137zM28.9578,19.6632c-0.4385,-0.312,-0.5411,-0.9203,-0.2291,-1.3588c0.312,-0.4385,0.9203,-0.5411,1.3588,-0.2291c0.4385,0.312,0.5411,0.9203,0.2291,1.3588C30.0046,19.8725,29.3963,19.9751,28.9578,19.6632z" fill="#6D6E71"/>
      <rect x="19.9908" y="25.0133" width="9.7437" height="0.812" fill="#E6E7E8" transform="matrix(0.8148 0.5797 -0.5797 0.8148 19.3394 -9.70599)"/>
    </g>
  </g>
</svg>